<svg width="199" height="61" viewBox="0 0 199 61" fill="none" xmlns="http://www.w3.org/2000/svg">
<path d="M18.4643 45.8083L1 16.7012H15.1897L26.4688 38.8954L37.3839 16.7012H69.4018L65.7634 21.7949L47.5714 22.1588L44.2969 27.9802H60.3058L56.6674 33.4378H41.0223L35.5647 41.0784L54.8482 40.7146L51.2098 45.8083H18.4643Z" fill="white" stroke="#FF7D29" stroke-width="1.0251"/>
<path d="M1.72766 17.0654L15.1897 16.7016L28.3311 41.1703L55.212 40.3511L51.5736 45.8087L18.8281 45.4449L1.72766 17.0654Z" fill="white"/>
<path d="M37.3839 16.3361L50.1183 19.9745L34.8371 44.7156L24.6496 41.0772L37.3839 16.3361Z" fill="white"/>
<path d="M69.7656 16.3368L66.1272 22.1582L39.9308 22.8859L38.1115 16.3368L69.7656 16.3368Z" fill="white"/>
<path d="M60.3058 28.3431L56.6674 33.4368L39.867 33.0823L38.8392 26.8877L60.3058 28.3431Z" fill="white"/>
<path d="M81.5241 31.2988C81.2917 31.2988 81.1072 31.2373 80.9705 31.1143C80.8338 30.9913 80.7382 30.8478 80.6835 30.6838L76.5011 17.5625C76.4738 17.4942 76.4601 17.4327 76.4601 17.378C76.4601 17.2687 76.5011 17.173 76.5831 17.091C76.6788 16.9953 76.7881 16.9475 76.9111 16.9475H79.4534C79.6721 16.9475 79.8429 17.009 79.9659 17.132C80.0889 17.255 80.1641 17.3712 80.1914 17.4805L83.0822 26.9524L85.9935 17.4805C86.0345 17.3712 86.1097 17.255 86.219 17.132C86.342 17.009 86.5129 16.9475 86.7316 16.9475H89.2738C89.3968 16.9475 89.4993 16.9953 89.5813 17.091C89.677 17.173 89.7248 17.2687 89.7248 17.378C89.7248 17.4327 89.7112 17.4942 89.6838 17.5625L85.5014 30.6838C85.4468 30.8478 85.3511 30.9913 85.2144 31.1143C85.0914 31.2373 84.9069 31.2988 84.6609 31.2988H81.5241ZM92.1514 31.2988C92.0011 31.2988 91.8781 31.251 91.7824 31.1553C91.6867 31.0596 91.6389 30.9366 91.6389 30.7863V17.46C91.6389 17.3097 91.6867 17.1867 91.7824 17.091C91.8781 16.9953 92.0011 16.9475 92.1514 16.9475H94.8987C95.049 16.9475 95.172 16.9953 95.2677 17.091C95.3634 17.1867 95.4112 17.3097 95.4112 17.46V30.7863C95.4112 30.9366 95.3634 31.0596 95.2677 31.1553C95.172 31.251 95.049 31.2988 94.8987 31.2988H92.1514ZM103.637 31.5038C102.27 31.5038 101.136 31.3125 100.234 30.9298C99.3316 30.5334 98.6482 30.0209 98.1835 29.3922C97.7188 28.7634 97.4727 28.0937 97.4454 27.383C97.4454 27.2736 97.4864 27.1779 97.5684 27.0959C97.6641 27.0003 97.7734 26.9524 97.8964 26.9524H100.48C100.671 26.9524 100.815 26.9866 100.91 27.0549C101.02 27.1233 101.115 27.2121 101.197 27.3215C101.307 27.5265 101.457 27.7247 101.648 27.916C101.853 28.1074 102.113 28.2645 102.427 28.3876C102.755 28.4969 103.159 28.5516 103.637 28.5516C104.43 28.5516 105.024 28.4286 105.421 28.1825C105.831 27.9365 106.036 27.6017 106.036 27.1779C106.036 26.8773 105.926 26.6312 105.708 26.4399C105.489 26.2349 105.134 26.0572 104.642 25.9068C104.163 25.7428 103.521 25.5788 102.714 25.4148C101.676 25.1961 100.787 24.9159 100.049 24.5742C99.3247 24.2188 98.7712 23.761 98.3885 23.2006C98.0058 22.6265 97.8144 21.9158 97.8144 21.0684C97.8144 20.2346 98.0468 19.4897 98.5115 18.8337C98.9899 18.1776 99.6528 17.6651 100.5 17.296C101.348 16.927 102.352 16.7425 103.514 16.7425C104.457 16.7425 105.284 16.8655 105.995 17.1115C106.719 17.3575 107.327 17.6856 107.819 18.0956C108.311 18.5056 108.68 18.943 108.926 19.4077C109.186 19.8588 109.323 20.303 109.337 20.7403C109.337 20.8497 109.296 20.9522 109.214 21.0479C109.131 21.1299 109.029 21.1709 108.906 21.1709H106.2C106.049 21.1709 105.92 21.1435 105.81 21.0889C105.701 21.0342 105.605 20.9454 105.523 20.8224C105.441 20.5217 105.222 20.262 104.867 20.0433C104.525 19.8109 104.074 19.6947 103.514 19.6947C102.913 19.6947 102.441 19.8041 102.099 20.0228C101.771 20.2278 101.607 20.549 101.607 20.9864C101.607 21.2597 101.696 21.4989 101.874 21.7039C102.065 21.909 102.373 22.0866 102.796 22.237C103.234 22.3873 103.828 22.5445 104.58 22.7085C105.824 22.9409 106.828 23.2347 107.594 23.5901C108.359 23.9318 108.92 24.3829 109.275 24.9432C109.63 25.49 109.808 26.1802 109.808 27.0139C109.808 27.9433 109.542 28.7498 109.008 29.4332C108.489 30.1029 107.765 30.6154 106.835 30.9708C105.906 31.3262 104.84 31.5038 103.637 31.5038ZM112.373 31.2988C112.223 31.2988 112.1 31.251 112.004 31.1553C111.908 31.0596 111.86 30.9366 111.86 30.7863V17.46C111.86 17.3097 111.908 17.1867 112.004 17.091C112.1 16.9953 112.223 16.9475 112.373 16.9475H115.018C115.168 16.9475 115.291 16.9953 115.387 17.091C115.482 17.1867 115.53 17.3097 115.53 17.46V22.401H120.594V17.46C120.594 17.3097 120.642 17.1867 120.738 17.091C120.833 16.9953 120.957 16.9475 121.107 16.9475H123.752C123.902 16.9475 124.025 16.9953 124.121 17.091C124.216 17.1867 124.264 17.3097 124.264 17.46V30.7863C124.264 30.9366 124.216 31.0596 124.121 31.1553C124.025 31.251 123.902 31.2988 123.752 31.2988H121.107C120.957 31.2988 120.833 31.251 120.738 31.1553C120.642 31.0596 120.594 30.9366 120.594 30.7863V25.6813H115.53V30.7863C115.53 30.9366 115.482 31.0596 115.387 31.1553C115.291 31.251 115.168 31.2988 115.018 31.2988H112.373ZM126.317 31.2988C126.207 31.2988 126.105 31.2578 126.009 31.1758C125.927 31.0801 125.886 30.9776 125.886 30.8683C125.886 30.7999 125.893 30.7384 125.907 30.6838L130.725 17.5215C130.766 17.3712 130.848 17.2414 130.971 17.132C131.107 17.009 131.292 16.9475 131.524 16.9475H134.558C134.791 16.9475 134.969 17.009 135.092 17.132C135.228 17.2414 135.317 17.3712 135.358 17.5215L140.156 30.6838C140.183 30.7384 140.197 30.7999 140.197 30.8683C140.197 30.9776 140.149 31.0801 140.053 31.1758C139.971 31.2578 139.868 31.2988 139.745 31.2988H137.224C137.019 31.2988 136.862 31.251 136.752 31.1553C136.657 31.046 136.595 30.9503 136.568 30.8683L135.768 28.7771H130.294L129.515 30.8683C129.488 30.9503 129.426 31.046 129.331 31.1553C129.235 31.251 129.071 31.2988 128.838 31.2988H126.317ZM131.135 25.8248H134.948L133.021 20.4123L131.135 25.8248ZM142.325 31.2988C142.175 31.2988 142.052 31.251 141.956 31.1553C141.86 31.0596 141.812 30.9366 141.812 30.7863V17.46C141.812 17.3097 141.86 17.1867 141.956 17.091C142.052 16.9953 142.175 16.9475 142.325 16.9475H145.031C145.168 16.9475 145.284 16.9953 145.38 17.091C145.489 17.1867 145.544 17.3097 145.544 17.46V28.203H151.735C151.886 28.203 152.009 28.2577 152.104 28.3671C152.214 28.4627 152.268 28.5857 152.268 28.7361V30.7863C152.268 30.9366 152.214 31.0596 152.104 31.1553C152.009 31.251 151.886 31.2988 151.735 31.2988H142.325Z" fill="white"/>
<path d="M77.9618 47.2383C77.8303 47.2383 77.7286 47.2024 77.6569 47.1306C77.5851 47.0469 77.5492 46.9453 77.5492 46.8257V35.1114C77.5492 34.9798 77.5851 34.8782 77.6569 34.8064C77.7286 34.7227 77.8303 34.6809 77.9618 34.6809H85.3707C85.5023 34.6809 85.6039 34.7227 85.6757 34.8064C85.7474 34.8782 85.7833 34.9798 85.7833 35.1114V35.7931C85.7833 35.9246 85.7474 36.0263 85.6757 36.0981C85.6039 36.1698 85.5023 36.2057 85.3707 36.2057H79.2714V40.1344H84.9761C85.1076 40.1344 85.2093 40.1762 85.281 40.2599C85.3528 40.3317 85.3887 40.4334 85.3887 40.5649V41.2287C85.3887 41.3483 85.3528 41.4499 85.281 41.5336C85.2093 41.6054 85.1076 41.6413 84.9761 41.6413H79.2714V45.7135H85.5142C85.6458 45.7135 85.7474 45.7493 85.8192 45.8211C85.8909 45.8928 85.9268 45.9945 85.9268 46.1261V46.8257C85.9268 46.9453 85.8909 47.0469 85.8192 47.1306C85.7474 47.2024 85.6458 47.2383 85.5142 47.2383H77.9618ZM90.6349 47.2383C90.5033 47.2383 90.4017 47.2024 90.3299 47.1306C90.2582 47.0469 90.2223 46.9453 90.2223 46.8257V35.1114C90.2223 34.9798 90.2582 34.8782 90.3299 34.8064C90.4017 34.7227 90.5033 34.6809 90.6349 34.6809H91.4601C91.6036 34.6809 91.7112 34.7167 91.783 34.7885C91.8547 34.8483 91.8966 34.8961 91.9086 34.932L97.8644 44.081V35.1114C97.8644 34.9798 97.9002 34.8782 97.972 34.8064C98.0438 34.7227 98.1454 34.6809 98.277 34.6809H99.138C99.2696 34.6809 99.3713 34.7227 99.443 34.8064C99.5267 34.8782 99.5686 34.9798 99.5686 35.1114V46.8077C99.5686 46.9273 99.5267 47.029 99.443 47.1127C99.3713 47.1964 99.2756 47.2383 99.156 47.2383H98.2949C98.1634 47.2383 98.0617 47.2024 97.9899 47.1306C97.9301 47.0589 97.8883 47.0111 97.8644 46.9871L91.9265 37.9278V46.8257C91.9265 46.9453 91.8846 47.0469 91.8009 47.1306C91.7292 47.2024 91.6275 47.2383 91.496 47.2383H90.6349ZM107.629 47.2383C107.51 47.2383 107.408 47.2024 107.324 47.1306C107.253 47.0469 107.217 46.9453 107.217 46.8257V36.2774H103.772C103.653 36.2774 103.551 36.2416 103.467 36.1698C103.396 36.0861 103.36 35.9844 103.36 35.8648V35.1114C103.36 34.9798 103.396 34.8782 103.467 34.8064C103.551 34.7227 103.653 34.6809 103.772 34.6809H112.419C112.551 34.6809 112.652 34.7227 112.724 34.8064C112.808 34.8782 112.85 34.9798 112.85 35.1114V35.8648C112.85 35.9844 112.808 36.0861 112.724 36.1698C112.652 36.2416 112.551 36.2774 112.419 36.2774H108.993V46.8257C108.993 46.9453 108.951 47.0469 108.867 47.1306C108.795 47.2024 108.694 47.2383 108.562 47.2383H107.629ZM117.067 47.2383C116.936 47.2383 116.834 47.2024 116.762 47.1306C116.69 47.0469 116.655 46.9453 116.655 46.8257V35.1114C116.655 34.9798 116.69 34.8782 116.762 34.8064C116.834 34.7227 116.936 34.6809 117.067 34.6809H124.476C124.608 34.6809 124.709 34.7227 124.781 34.8064C124.853 34.8782 124.889 34.9798 124.889 35.1114V35.7931C124.889 35.9246 124.853 36.0263 124.781 36.0981C124.709 36.1698 124.608 36.2057 124.476 36.2057H118.377V40.1344H124.081C124.213 40.1344 124.315 40.1762 124.386 40.2599C124.458 40.3317 124.494 40.4334 124.494 40.5649V41.2287C124.494 41.3483 124.458 41.4499 124.386 41.5336C124.315 41.6054 124.213 41.6413 124.081 41.6413H118.377V45.7135H124.62C124.751 45.7135 124.853 45.7493 124.924 45.8211C124.996 45.8928 125.032 45.9945 125.032 46.1261V46.8257C125.032 46.9453 124.996 47.0469 124.924 47.1306C124.853 47.2024 124.751 47.2383 124.62 47.2383H117.067ZM129.74 47.2383C129.609 47.2383 129.507 47.2024 129.435 47.1306C129.363 47.0469 129.328 46.9453 129.328 46.8257V35.1114C129.328 34.9798 129.363 34.8782 129.435 34.8064C129.507 34.7227 129.609 34.6809 129.74 34.6809H134.117C135.469 34.6809 136.539 34.9978 137.328 35.6316C138.118 36.2655 138.512 37.2043 138.512 38.4481C138.512 39.369 138.279 40.1224 137.813 40.7084C137.358 41.2825 136.736 41.6831 135.947 41.9103L138.71 46.6822C138.746 46.7539 138.764 46.8197 138.764 46.8795C138.764 46.9752 138.722 47.0589 138.638 47.1306C138.566 47.2024 138.483 47.2383 138.387 47.2383H137.526C137.322 47.2383 137.173 47.1845 137.077 47.0768C136.982 46.9692 136.898 46.8616 136.826 46.7539L134.225 42.1974H131.086V46.8257C131.086 46.9453 131.044 47.0469 130.96 47.1306C130.888 47.2024 130.787 47.2383 130.655 47.2383H129.74ZM131.086 40.6725H134.046C134.943 40.6725 135.612 40.4872 136.055 40.1164C136.497 39.7337 136.719 39.1716 136.719 38.4301C136.719 37.7006 136.497 37.1445 136.055 36.7618C135.624 36.3791 134.954 36.1877 134.046 36.1877H131.086V40.6725ZM143.289 47.2383C143.158 47.2383 143.056 47.2024 142.984 47.1306C142.912 47.0469 142.877 46.9453 142.877 46.8257V35.1114C142.877 34.9798 142.912 34.8782 142.984 34.8064C143.056 34.7227 143.158 34.6809 143.289 34.6809H147.846C148.731 34.6809 149.496 34.8244 150.142 35.1114C150.8 35.3984 151.308 35.829 151.667 36.403C152.026 36.9651 152.205 37.6707 152.205 38.5198C152.205 39.369 152.026 40.0746 151.667 40.6367C151.308 41.1988 150.8 41.6233 150.142 41.9103C149.496 42.1974 148.731 42.3409 147.846 42.3409H144.67V46.8257C144.67 46.9453 144.629 47.0469 144.545 47.1306C144.473 47.2024 144.371 47.2383 144.24 47.2383H143.289ZM144.653 40.834H147.756C148.641 40.834 149.305 40.6367 149.747 40.242C150.19 39.8473 150.411 39.2733 150.411 38.5198C150.411 37.7784 150.196 37.2043 149.765 36.7977C149.335 36.3911 148.665 36.1877 147.756 36.1877H144.653V40.834ZM156.593 47.2383C156.461 47.2383 156.36 47.2024 156.288 47.1306C156.216 47.0469 156.18 46.9453 156.18 46.8257V35.1114C156.18 34.9798 156.216 34.8782 156.288 34.8064C156.36 34.7227 156.461 34.6809 156.593 34.6809H160.97C162.321 34.6809 163.392 34.9978 164.181 35.6316C164.97 36.2655 165.365 37.2043 165.365 38.4481C165.365 39.369 165.132 40.1224 164.665 40.7084C164.211 41.2825 163.589 41.6831 162.8 41.9103L165.562 46.6822C165.598 46.7539 165.616 46.8197 165.616 46.8795C165.616 46.9752 165.574 47.0589 165.491 47.1306C165.419 47.2024 165.335 47.2383 165.24 47.2383H164.378C164.175 47.2383 164.026 47.1845 163.93 47.0768C163.834 46.9692 163.751 46.8616 163.679 46.7539L161.078 42.1974H157.938V46.8257C157.938 46.9453 157.896 47.0469 157.813 47.1306C157.741 47.2024 157.639 47.2383 157.508 47.2383H156.593ZM157.938 40.6725H160.898C161.795 40.6725 162.465 40.4872 162.907 40.1164C163.35 39.7337 163.571 39.1716 163.571 38.4301C163.571 37.7006 163.35 37.1445 162.907 36.7618C162.477 36.3791 161.807 36.1877 160.898 36.1877H157.938V40.6725ZM170.142 47.2383C170.01 47.2383 169.909 47.2024 169.837 47.1306C169.765 47.0469 169.729 46.9453 169.729 46.8257V35.0935C169.729 34.9739 169.765 34.8782 169.837 34.8064C169.909 34.7227 170.01 34.6809 170.142 34.6809H171.093C171.212 34.6809 171.308 34.7227 171.38 34.8064C171.463 34.8782 171.505 34.9739 171.505 35.0935V46.8257C171.505 46.9453 171.463 47.0469 171.38 47.1306C171.308 47.2024 171.212 47.2383 171.093 47.2383H170.142ZM180.465 47.4177C179.424 47.4177 178.551 47.2622 177.846 46.9513C177.14 46.6283 176.596 46.2157 176.213 45.7135C175.842 45.1992 175.645 44.655 175.621 44.081C175.621 43.9853 175.657 43.9016 175.729 43.8298C175.813 43.7461 175.908 43.7043 176.016 43.7043H176.931C177.074 43.7043 177.182 43.7401 177.254 43.8119C177.325 43.8837 177.373 43.9674 177.397 44.063C177.457 44.3501 177.6 44.6371 177.828 44.9241C178.067 45.1992 178.396 45.4324 178.814 45.6238C179.245 45.8031 179.795 45.8928 180.465 45.8928C181.493 45.8928 182.247 45.7135 182.725 45.3547C183.215 44.9839 183.461 44.4936 183.461 43.8837C183.461 43.4651 183.329 43.1302 183.066 42.8791C182.815 42.616 182.426 42.3827 181.9 42.1794C181.374 41.9761 180.692 41.7549 179.855 41.5157C178.982 41.2645 178.258 40.9895 177.684 40.6905C177.11 40.3915 176.68 40.0208 176.393 39.5783C176.117 39.1358 175.98 38.5737 175.98 37.892C175.98 37.2462 176.153 36.6721 176.5 36.1698C176.847 35.6556 177.343 35.2489 177.989 34.9499C178.647 34.651 179.442 34.5015 180.375 34.5015C181.117 34.5015 181.762 34.6031 182.312 34.8064C182.875 34.9978 183.341 35.2609 183.712 35.5958C184.082 35.9187 184.364 36.2715 184.555 36.6542C184.746 37.0249 184.848 37.3897 184.86 37.7485C184.86 37.8322 184.83 37.9159 184.77 37.9996C184.71 38.0714 184.615 38.1072 184.483 38.1072H183.532C183.449 38.1072 183.359 38.0833 183.263 38.0355C183.18 37.9876 183.114 37.898 183.066 37.7664C182.994 37.2761 182.719 36.8635 182.241 36.5286C181.762 36.1937 181.14 36.0263 180.375 36.0263C179.598 36.0263 178.964 36.1758 178.473 36.4748C177.995 36.7738 177.756 37.2402 177.756 37.874C177.756 38.2807 177.87 38.6215 178.097 38.8966C178.324 39.1597 178.683 39.3929 179.173 39.5962C179.663 39.7995 180.303 40.0148 181.093 40.242C182.049 40.5051 182.833 40.7862 183.443 41.0851C184.053 41.3722 184.501 41.7369 184.788 42.1794C185.087 42.61 185.237 43.1661 185.237 43.8478C185.237 44.6012 185.039 45.247 184.645 45.7852C184.25 46.3114 183.694 46.718 182.976 47.0051C182.271 47.2801 181.433 47.4177 180.465 47.4177ZM189.794 47.2383C189.663 47.2383 189.561 47.2024 189.489 47.1306C189.418 47.0469 189.382 46.9453 189.382 46.8257V35.1114C189.382 34.9798 189.418 34.8782 189.489 34.8064C189.561 34.7227 189.663 34.6809 189.794 34.6809H197.203C197.335 34.6809 197.436 34.7227 197.508 34.8064C197.58 34.8782 197.616 34.9798 197.616 35.1114V35.7931C197.616 35.9246 197.58 36.0263 197.508 36.0981C197.436 36.1698 197.335 36.2057 197.203 36.2057H191.104V40.1344H196.809C196.94 40.1344 197.042 40.1762 197.114 40.2599C197.185 40.3317 197.221 40.4334 197.221 40.5649V41.2287C197.221 41.3483 197.185 41.4499 197.114 41.5336C197.042 41.6054 196.94 41.6413 196.809 41.6413H191.104V45.7135H197.347C197.478 45.7135 197.58 45.7493 197.652 45.8211C197.723 45.8928 197.759 45.9945 197.759 46.1261V46.8257C197.759 46.9453 197.723 47.0469 197.652 47.1306C197.58 47.2024 197.478 47.2383 197.347 47.2383H189.794Z" fill="white"/>
<line x1="72.7839" y1="46.6406" x2="72.7839" y2="16.0781" stroke="white" stroke-width="0.512548"/>
</svg>
